<svg id="Layer_1" data-name="Layer 1" xmlns="http://www.w3.org/2000/svg" width="44.5mm" height="57.3mm" viewBox="0 0 126.14 162.43"><title>A2450</title><rect width="126.14" height="162.43" style="fill:#282828"/><path d="M63.07,130a16.21,16.21,0,0,0-16.21,16.21v16.22H79.29V146.21A16.22,16.22,0,0,0,63.07,130Z" style="fill:#7b7b7b"/><path d="M63.07,32.43A16.22,16.22,0,0,0,79.29,16.21V0H46.86V16.21A16.22,16.22,0,0,0,63.07,32.43Z" style="fill:#7b7b7b"/><rect x="2.33" y="2.67" width="40.5" height="40.5" style="fill:#7b7b7b"/><rect x="83" y="2.67" width="40.5" height="40.5" style="fill:#7b7b7b"/><rect x="15" y="131.57" width="28.35" height="28.35" style="fill:#7b7b7b"/><rect x="82.7" y="131.9" width="28.35" height="28.35" style="fill:#7b7b7b"/><circle cx="23" cy="23" r="12" style="fill:#a3a3a3"/><circle cx="103" cy="23" r="12" style="fill:#a3a3a3"/><circle cx="29" cy="146" r="7" style="fill:#a3a3a3"/><circle cx="97" cy="146" r="7" style="fill:#a3a3a3"/></svg>