<svg id="Layer_1" data-name="Layer 1" xmlns="http://www.w3.org/2000/svg" width="25mm" height="15mm" viewBox="0 0 70.87 42.52"><title>barometer-board</title><path d="M65.2,42.52H5.67A5.68,5.68,0,0,1,0,36.85V5.67A5.68,5.68,0,0,1,5.67,0H65.2a5.69,5.69,0,0,1,5.67,5.67V36.85A5.69,5.69,0,0,1,65.2,42.52ZM7.09,2.83a4.26,4.26,0,1,0,4.25,4.26A4.26,4.26,0,0,0,7.09,2.83Zm0,28.35a4.26,4.26,0,1,0,4.25,4.25A4.25,4.25,0,0,0,7.09,31.18ZM63.78,2.83A4.26,4.26,0,1,0,68,7.09,4.25,4.25,0,0,0,63.78,2.83Zm0,28.35A4.26,4.26,0,1,0,68,35.43,4.25,4.25,0,0,0,63.78,31.18Z" style="fill:#1b1c23"/><path d="M7.09,2.41A4.68,4.68,0,1,1,2.41,7.09,4.67,4.67,0,0,1,7.09,2.41m0-1a5.68,5.68,0,1,0,5.67,5.68A5.69,5.69,0,0,0,7.09,1.41Z" style="fill:#fff"/><path d="M7.09,30.76a4.68,4.68,0,1,1-4.68,4.67,4.67,4.67,0,0,1,4.68-4.67m0-1a5.68,5.68,0,1,0,5.67,5.67,5.68,5.68,0,0,0-5.67-5.67Z" style="fill:#fff"/><path d="M63.78,2.41A4.68,4.68,0,1,1,59.1,7.09a4.68,4.68,0,0,1,4.68-4.68m0-1a5.68,5.68,0,1,0,5.68,5.68,5.69,5.69,0,0,0-5.68-5.68Z" style="fill:#fff"/><path d="M63.78,30.76a4.68,4.68,0,1,1-4.68,4.67,4.68,4.68,0,0,1,4.68-4.67m0-1a5.68,5.68,0,1,0,5.68,5.67,5.68,5.68,0,0,0-5.68-5.67Z" style="fill:#fff"/><text transform="translate(64.41 27.77) rotate(-90)" style="font-size:2px;fill:#fff;font-family:OCRA, OCRA">Barometer</text><rect x="15.43" width="40" height="14.17" style="fill:#fbf2dc"/></svg>