<svg xmlns="http://www.w3.org/2000/svg" width="113.39" height="113.64" viewBox="0 0 113.39 113.64"><title>master-board</title><g id="Layer_2" data-name="Layer 2"><g id="Breadboard_Black" data-name="Breadboard Black"><path d="M107.72,113.39H5.67A5.69,5.69,0,0,1,0,107.72V5.67A5.68,5.68,0,0,1,5.67,0H107.72a5.69,5.69,0,0,1,5.67,5.67V107.72A5.7,5.7,0,0,1,107.72,113.39ZM7.09,2.83a4.26,4.26,0,1,0,4.25,4.26A4.26,4.26,0,0,0,7.09,2.83Zm0,99.22a4.25,4.25,0,1,0,4.25,4.25A4.25,4.25,0,0,0,7.09,102.05ZM106.3,2.83a4.26,4.26,0,1,0,4.25,4.26A4.25,4.25,0,0,0,106.3,2.83Zm0,99.22a4.25,4.25,0,1,0,4.25,4.25A4.25,4.25,0,0,0,106.3,102.05Z" style="fill:#1b1c23"/><path d="M7.09,2.41A4.68,4.68,0,1,1,2.41,7.09,4.67,4.67,0,0,1,7.09,2.41m0-1a5.68,5.68,0,1,0,5.67,5.68A5.69,5.69,0,0,0,7.09,1.41Z" style="fill:#fff"/><path d="M7.09,101.62a4.68,4.68,0,1,1-4.68,4.68,4.68,4.68,0,0,1,4.68-4.68m0-1a5.68,5.68,0,1,0,5.67,5.68,5.69,5.69,0,0,0-5.67-5.68Z" style="fill:#fff"/><path d="M106.3,2.41a4.68,4.68,0,1,1-4.68,4.68,4.68,4.68,0,0,1,4.68-4.68m0-1A5.68,5.68,0,1,0,112,7.09a5.69,5.69,0,0,0-5.68-5.68Z" style="fill:#fff"/><path d="M106.3,101.62a4.68,4.68,0,1,1-4.68,4.68,4.69,4.69,0,0,1,4.68-4.68m0-1A5.68,5.68,0,1,0,112,106.3a5.69,5.69,0,0,0-5.68-5.68Z" style="fill:#fff"/></g><g id="Master_Brick_Breadboard" data-name="Master Brick Breadboard"><rect x="59.69" y="99.21" width="17.01" height="14.17" style="fill:#fbf2dc;stroke:#231f20;stroke-miterlimit:10;stroke-width:0.5px"/><text transform="translate(66.38 107.99)" style="font-size:5px;fill:#231f20;font-family:OCRA, OCRA">B</text><rect x="76.69" y="99.21" width="17.01" height="14.17" style="fill:#fbf2dc;stroke:#231f20;stroke-miterlimit:10;stroke-width:0.5px"/><text transform="translate(83.39 107.99)" style="font-size:5px;fill:#231f20;font-family:OCRA, OCRA">D</text><rect x="19.69" y="99.21" width="17.01" height="14.17" style="fill:#fbf2dc;stroke:#231f20;stroke-miterlimit:10;stroke-width:0.5px"/><text transform="translate(26.38 107.99)" style="font-size:5px;fill:#231f20;font-family:OCRA, OCRA">A</text><rect x="36.69" y="99.21" width="17.01" height="14.17" style="fill:#fbf2dc;stroke:#231f20;stroke-miterlimit:10;stroke-width:0.5px"/><text transform="translate(43.39 107.99)" style="font-size:5px;fill:#231f20;font-family:OCRA, OCRA">C</text><text transform="translate(39.54 6.69) rotate(180)" style="font-size:5px;fill:#fff;font-family:OCRA, OCRA">Master</text><rect x="45.35" width="22.68" height="28.35" style="fill:#8c8c8c"/></g><g id="Stack_Connectors" data-name="Stack Connectors"><rect x="6.09" y="38.32" width="10.5" height="36.75" style="fill:#fbf2dc"/><rect x="96.8" y="38.32" width="10.5" height="36.75" style="fill:#fbf2dc"/></g></g></svg>