<svg id="Layer_1" data-name="Layer 1" xmlns="http://www.w3.org/2000/svg" width="63mm" height="125.2mm" viewBox="0 0 178.58 354.9"><title>ndr-240-24</title><rect width="178.58" height="354.9" style="fill:#0aa3d8"/><rect x="15.07" y="83.28" width="47.34" height="28.01" style="fill:#dd3736"/><text transform="translate(15.07 187.48)" style="font-size:17px;fill:#fff;font-family:DroidSansMono, Droid Sans Mono">NDR-240-24</text><rect x="59.04" width="15.13" height="27.17" style="fill:#93bc99"/><circle cx="66.6" cy="18.63" r="3.78" style="fill:#939393"/><rect x="74.17" width="15.13" height="27.17" style="fill:#93bc99"/><circle cx="81.73" cy="18.63" r="3.78" style="fill:#939393"/><rect x="89.29" width="15.13" height="27.17" style="fill:#93bc99"/><circle cx="96.85" cy="18.63" r="3.78" style="fill:#939393"/><rect x="104.42" width="15.13" height="27.17" style="fill:#93bc99"/><circle cx="111.98" cy="18.63" r="3.78" style="fill:#939393"/><rect x="140.65" y="327.73" width="15.13" height="27.17" transform="translate(296.43 682.62) rotate(180)" style="fill:#93bc99"/><circle cx="148.22" cy="336.27" r="3.78" style="fill:#939393"/><rect x="125.53" y="327.73" width="15.13" height="27.17" transform="translate(266.18 682.62) rotate(180)" style="fill:#93bc99"/><circle cx="133.09" cy="336.27" r="3.78" style="fill:#939393"/><rect x="110.4" y="327.73" width="15.13" height="27.17" transform="translate(235.93 682.62) rotate(180)" style="fill:#93bc99"/><circle cx="117.96" cy="336.27" r="3.78" style="fill:#939393"/></svg>