<svg xmlns="http://www.w3.org/2000/svg" width="113.39" height="113.39" viewBox="0 0 113.39 113.39"><title>RED-board</title><g id="Layer_2" data-name="Layer 2"><g id="Breadboard_RED" data-name="Breadboard RED"><path d="M107.72,113.39H5.67A5.69,5.69,0,0,1,0,107.72V5.67A5.68,5.68,0,0,1,5.67,0H107.72a5.69,5.69,0,0,1,5.67,5.67V107.72A5.7,5.7,0,0,1,107.72,113.39ZM7.09,2.83a4.26,4.26,0,1,0,4.25,4.26A4.26,4.26,0,0,0,7.09,2.83Zm0,99.22a4.25,4.25,0,1,0,4.25,4.25A4.25,4.25,0,0,0,7.09,102.05ZM106.3,2.83a4.26,4.26,0,1,0,4.25,4.26A4.25,4.25,0,0,0,106.3,2.83Zm0,99.22a4.25,4.25,0,1,0,4.25,4.25A4.25,4.25,0,0,0,106.3,102.05Z" style="fill:#a42b2b"/><path d="M7.09,2.41A4.68,4.68,0,1,1,2.41,7.09,4.67,4.67,0,0,1,7.09,2.41m0-1a5.68,5.68,0,1,0,5.67,5.68A5.69,5.69,0,0,0,7.09,1.41Z" style="fill:#fff"/><path d="M7.09,101.62a4.68,4.68,0,1,1-4.68,4.68,4.68,4.68,0,0,1,4.68-4.68m0-1a5.68,5.68,0,1,0,5.67,5.68,5.69,5.69,0,0,0-5.67-5.68Z" style="fill:#fff"/><path d="M106.3,2.41a4.68,4.68,0,1,1-4.68,4.68,4.68,4.68,0,0,1,4.68-4.68m0-1A5.68,5.68,0,1,0,112,7.09a5.69,5.69,0,0,0-5.68-5.68Z" style="fill:#fff"/><path d="M106.3,101.62a4.68,4.68,0,1,1-4.68,4.68,4.69,4.69,0,0,1,4.68-4.68m0-1A5.68,5.68,0,1,0,112,106.3a5.69,5.69,0,0,0-5.68-5.68Z" style="fill:#fff"/></g><g id="RED_Brick_Breadboard" data-name="RED Brick Breadboard"><text transform="translate(97.11 90.34)" style="font-size:5px;fill:#fff;font-family:OCRA, OCRA">RED</text><rect x="45.35" width="22.68" height="28.35" style="fill:#8c8c8c"/><rect x="69.95" y="85.04" width="22.68" height="28.35" style="fill:#8c8c8c"/><rect x="19.62" y="79.38" width="39.21" height="34.01" style="fill:#8c8c8c"/></g><g id="Stack_Connectors" data-name="Stack Connectors"><rect x="6.09" y="38.32" width="10.5" height="36.75" style="fill:#fbf2dc"/><rect x="96.8" y="38.32" width="10.5" height="36.75" style="fill:#fbf2dc"/></g></g></svg>