<svg id="Layer_1" data-name="Layer 1" xmlns="http://www.w3.org/2000/svg" width="44.45mm" height="35.56mm" viewBox="0 0 126 100.8"><title>SSRMAN-1P</title><path d="M126,100.8H0V0H126ZM28,75a8.75,8.75,0,1,0,8.75,8.75A8.75,8.75,0,0,0,28,75Zm70,0a8.75,8.75,0,1,0,8.75,8.75A8.75,8.75,0,0,0,98,75ZM76.5,100.8a13.5,13.5,0,0,0-27,0h27Z" style="fill:#11131f"/><path d="M28,75a8.75,8.75,0,1,1-8.75,8.75A8.75,8.75,0,0,1,28,75m0-4A12.75,12.75,0,1,0,40.74,83.7,12.76,12.76,0,0,0,28,71Z" style="fill:#fbb040"/><path d="M98,75a8.75,8.75,0,1,1-8.75,8.75A8.75,8.75,0,0,1,98,75m0-4A12.75,12.75,0,1,0,110.76,83.7,12.76,12.76,0,0,0,98,71Z" style="fill:#fbb040"/><rect width="19.24" height="12" style="fill:#636464"/><circle cx="9.62" cy="6" r="3.03" style="fill:#cccccb"/><rect y="12" width="19.24" height="12" style="fill:#636464"/><circle cx="9.62" cy="18" r="3.03" style="fill:#cccccb"/><rect y="24" width="19.24" height="12" style="fill:#636464"/><circle cx="9.62" cy="30" r="3.03" style="fill:#cccccb"/><rect x="106.76" width="19.24" height="12" style="fill:#636464"/><circle cx="116.38" cy="6" r="3.03" style="fill:#cccccb"/><rect x="106.76" y="12" width="19.24" height="12" style="fill:#636464"/><circle cx="116.38" cy="18" r="3.03" style="fill:#cccccb"/></svg>