<svg id="Layer_1" data-name="Layer 1" xmlns="http://www.w3.org/2000/svg" width="35.4mm" height="80mm" viewBox="0 0 100.35 226.77"><title>FAZ-BX-2</title><rect width="100.35" height="226.77" style="fill:#a9a8a9"/><rect y="43.89" width="100.35" height="139" style="fill:#d3d3d3"/><polygon points="31.72 115.14 31.72 98.01 18.46 98.01 18.46 115.14 2.5 115.14 2.5 128.76 47.67 128.76 47.67 115.14 31.72 115.14" style="fill:#232323"/><polygon points="33.49 138.71 16.68 134.42 16.68 143 33.49 138.71" style="fill:#08aa4b"/><polygon points="81.89 115.14 81.89 98.01 68.63 98.01 68.63 115.14 52.68 115.14 52.68 128.76 97.84 128.76 97.84 115.14 81.89 115.14" style="fill:#232323"/><polygon points="83.67 138.71 66.85 134.42 66.85 143 83.67 138.71" style="fill:#08aa4b"/><line x1="50.17" x2="50.17" y2="226.77" style="fill:none;stroke:#231f20;stroke-miterlimit:10;stroke-width:0.5px"/><circle cx="25.09" cy="22.85" r="9.85" style="fill:#444545"/><circle cx="73.93" cy="22.85" r="9.85" style="fill:#444545"/><circle cx="25.09" cy="205.85" r="9.85" style="fill:#444545"/><circle cx="75.26" cy="205.85" r="9.85" style="fill:#444545"/></svg>