<svg id="Layer_1" data-name="Layer 1" xmlns="http://www.w3.org/2000/svg" width="54mm" height="90mm" viewBox="0 0 153.07 255.12"><title>SC-E2-220VAC</title><rect width="153.07" height="255.12" style="fill:#939393"/><rect y="17.08" width="153.07" height="220.97" style="fill:#bfbfbf"/><polygon points="106.65 85.22 106.65 96.11 46.42 96.11 46.42 85.22 37.91 85.22 37.91 96.11 37.91 159.01 37.91 169.9 46.42 169.9 46.42 159.01 106.65 159.01 106.65 169.9 115.16 169.9 115.16 159.01 115.16 96.11 115.16 85.22 106.65 85.22" style="fill:#212121"/><circle cx="26.43" cy="37.66" r="9.38" style="fill:#7b7b7b"/><circle cx="76.54" cy="37.66" r="9.38" style="fill:#7b7b7b"/><circle cx="126.64" cy="37.66" r="9.38" style="fill:#7b7b7b"/><circle cx="26.43" cy="217.46" r="9.38" style="fill:#7b7b7b"/><circle cx="76.54" cy="217.46" r="9.38" style="fill:#7b7b7b"/><circle cx="126.64" cy="217.46" r="9.38" style="fill:#7b7b7b"/><circle cx="141.82" cy="8.56" r="5.8" style="fill:#7b7b7b"/><circle cx="11.25" cy="8.56" r="5.8" style="fill:#7b7b7b"/></svg>